<svg width="29" height="29" viewBox="0 0 29 29" fill="none" xmlns="http://www.w3.org/2000/svg">
<path d="M13.13 20.478C9.09798 20.478 5.84998 17.23 5.84998 13.198C5.84998 9.16597 9.09798 5.91797 13.13 5.91797C17.162 5.91797 20.41 9.16597 20.41 13.198C20.41 17.23 17.162 20.478 13.13 20.478ZM13.13 7.03797C9.71398 7.03797 6.96998 9.78197 6.96998 13.198C6.96998 16.614 9.71398 19.358 13.13 19.358C16.546 19.358 19.29 16.614 19.29 13.198C19.29 9.78197 16.546 7.03797 13.13 7.03797Z" fill="#333333"/>
<path d="M18.552 17.8271L23.5808 22.8559L22.7889 23.6478L17.7601 18.619L18.552 17.8271Z" fill="#333333"/>
</svg>
