<svg width="25" height="25" viewBox="0 0 25 25" fill="none" xmlns="http://www.w3.org/2000/svg">
<path fill-rule="evenodd" clip-rule="evenodd" d="M12.2501 1.60645C10.9903 1.60645 9.7821 2.10689 8.8913 2.99769C8.0005 3.88849 7.50006 5.09667 7.50006 6.35645C7.50006 7.61622 8.0005 8.8244 8.8913 9.7152C9.7821 10.606 10.9903 11.1064 12.2501 11.1064C13.5098 11.1064 14.718 10.606 15.6088 9.7152C16.4996 8.8244 17.0001 7.61622 17.0001 6.35645C17.0001 5.09667 16.4996 3.88849 15.6088 2.99769C14.718 2.10689 13.5098 1.60645 12.2501 1.60645ZM9.00006 6.35645C9.00006 5.49449 9.34247 4.66784 9.95196 4.05835C10.5615 3.44885 11.3881 3.10645 12.2501 3.10645C13.112 3.10645 13.9387 3.44885 14.5482 4.05835C15.1576 4.66784 15.5001 5.49449 15.5001 6.35645C15.5001 7.2184 15.1576 8.04505 14.5482 8.65454C13.9387 9.26404 13.112 9.60645 12.2501 9.60645C11.3881 9.60645 10.5615 9.26404 9.95196 8.65454C9.34247 8.04505 9.00006 7.2184 9.00006 6.35645ZM12.2501 12.6064C9.93706 12.6064 7.80506 13.1324 6.22606 14.0204C4.67006 14.8964 3.50006 16.2224 3.50006 17.8564V17.9584C3.49906 19.1204 3.49806 20.5784 4.77706 21.6204C5.40606 22.1324 6.28706 22.4974 7.47706 22.7374C8.66906 22.9794 10.2241 23.1064 12.2501 23.1064C14.2761 23.1064 15.8301 22.9794 17.0241 22.7374C18.2141 22.4974 19.0941 22.1324 19.7241 21.6204C21.0031 20.5784 21.0011 19.1204 21.0001 17.9584V17.8564C21.0001 16.2224 19.8301 14.8964 18.2751 14.0204C16.6951 13.1324 14.5641 12.6064 12.2501 12.6064ZM5.00006 17.8564C5.00006 17.0054 5.62206 16.0814 6.96106 15.3284C8.27706 14.5884 10.1451 14.1064 12.2511 14.1064C14.3551 14.1064 16.2231 14.5884 17.5391 15.3284C18.8791 16.0814 19.5001 17.0054 19.5001 17.8564C19.5001 19.1644 19.4601 19.9004 18.7761 20.4564C18.4061 20.7584 17.7861 21.0534 16.7261 21.2674C15.6691 21.4814 14.2241 21.6064 12.2501 21.6064C10.2761 21.6064 8.83006 21.4814 7.77406 21.2674C6.71406 21.0534 6.09406 20.7584 5.72406 20.4574C5.04006 19.9004 5.00006 19.1644 5.00006 17.8564Z" fill="#333333"/>
</svg>
