<!DOCTYPE svg PUBLIC "-//W3C//DTD SVG 1.1//EN" "http://www.w3.org/Graphics/SVG/1.1/DTD/svg11.dtd">
<!-- Uploaded to: SVG Repo, www.svgrepo.com, Transformed by: SVG Repo Mixer Tools -->
<svg fill="#000000" width="64px" height="64px" viewBox="0 0 24.00 24.00" data-name="Layer 1" id="Layer_1" xmlns="http://www.w3.org/2000/svg">
<g id="SVGRepo_bgCarrier" stroke-width="0"/>
<g id="SVGRepo_tracerCarrier" stroke-linecap="round" stroke-linejoin="round"/>
<g id="SVGRepo_iconCarrier">
<title/>
<path d="M12.2,9h1.6V6.8H16V5.2H13.8V3H12.2V5.2H10V6.8h2.2ZM20,5v5.5L7.45,12.72,5,3H1.25a1,1,0,0,0,0,2H3.47L6.7,18H20V16H8.26l-.33-1.33L22,12.18V5ZM7,19a1.5,1.5,0,1,0,1.5,1.5A1.5,1.5,0,0,0,7,19Zm12,0a1.5,1.5,0,1,0,1.5,1.5A1.5,1.5,0,0,0,19,19Z"/>
</g>
</svg>